{"title":"War - War EAC Cue sowingmyseed","uid":4871054,"size":267437077,"categoryP":"audio","categoryS":"flac","magnet":"?xt=urn:btih:c0128d52d0264cf6cf6f5e363203aa58dc4a7524&amp;dn=War+-+War+EAC+Cue+sowingmyseed&amp;tr=udp%3A%2F%2Ftracker.openbittorrent.com%3A80&amp;tr=udp%3A%2F%2Fopen.demonii.com%3A1337&amp;tr=udp%3A%2F%2Ftracker.coppersurfer.tk%3A6969&amp;tr=udp%3A%2F%2Fexodus.desync.com%3A6969","seeders":1,"leechers":0,"uploader":"sowingmyseed","files":8,"time":1240843290,"description":"Exact Audio Copy V0.99 prebeta 4 from 23. January 2008\n\nEAC extraction logfile from 26. April 2009, 17:02\n\nWar / War\n\nUsed drive  : ATAPI   DVD D  DH16D3P   Adapter: 0  ID: 1\n\nRead mode               : Secure\nUtilize accurate stream : Yes\nDefeat audio cache      : No\nMake use of C2 pointers : No\n\nRead offset correction                      : 6\nOverread into Lead-In and Lead-Out          : No\nFill up missing offset samples with silence : Yes\nDelete leading and trailing silent blocks   : No\nNull samples used in CRC calculations       : No\nUsed interface                              : Installed external ASPI interface\nGap handling                                : Not detected, thus appended to previous track\n\nUsed output format : Internal WAV Routines\nSample format      : 44.100 Hz; 16 Bit; Stereo\n\n\nTOC of the extracted CD\n\n     Track |   Start  |  Length  | Start sector | End sector \n    ---------------------------------------------------------\n        1  |  0:00.32 |  5:58.03 |        32    |    26884   \n        2  |  5:58.35 |  4:36.05 |     26885    |    47589   \n        3  | 10:34.40 |  6:46.12 |     47590    |    78051   \n        4  | 17:20.52 |  3:54.05 |     78052    |    95606   \n        5  | 21:14.57 |  8:04.23 |     95607    |   131929   \n        6  | 29:19.05 | 11:17.37 |    131930    |   182741   \n\n\nTrack  1\n\n     Filename E:MusicWarWarWar - War - 01. Sun Oh Son.wav\n\n     Peak level 100.0 %\n     Track quality 100.0 %\n     Copy CRC AEB6A828\n     Track not present in AccurateRip database\n     Copy OK\n\nTrack  2\n\n     Filename E:MusicWarWarWar - War - 02. Lonely Feelin'.wav\n\n     Peak level 98.9 %\n     Track quality 100.0 %\n     Copy CRC AA2A7A6F\n     Track not present in AccurateRip database\n     Copy OK\n\nTrack  3\n\n     Filename E:MusicWarWarWar - War - 03. Back Home.wav\n\n     Peak level 95.7 %\n     Track quality 100.0 %\n     Copy CRC 6E3771C3\n     Track not present in AccurateRip database\n     Copy OK\n\nTrack  4\n\n     Filename E:MusicWarWarWar - War - 04. War Drums.wav\n\n     Peak level 100.0 %\n     Track quality 100.0 %\n     Copy CRC 6D2412F2\n     Track not present in AccurateRip database\n     Copy OK\n\nTrack  5\n\n     Filename E:MusicWarWarWar - War - 05. Vibeka.wav\n\n     Peak level 98.5 %\n     Track quality 100.0 %\n     Copy CRC AD18FDDA\n     Track not present in AccurateRip database\n     Copy OK\n\nTrack  6\n\n     Filename E:MusicWarWarWar - War - 06. Fidel's Fantasy.wav\n\n     Peak level 100.0 %\n     Track quality 100.0 %\n     Copy CRC FB10AFBE\n     Track not present in AccurateRip database\n     Copy OK\n\n\nNone of the tracks are present in the AccurateRip database\n\nNo errors occurred\n\nEnd of status report\n","torrent":{"xt":"urn:btih:c0128d52d0264cf6cf6f5e363203aa58dc4a7524","amp;dn":"War+-+War+EAC+Cue+sowingmyseed","amp;tr":["udp%3A%2F%2Ftracker.openbittorrent.com%3A80","udp%3A%2F%2Fopen.demonii.com%3A1337","udp%3A%2F%2Ftracker.coppersurfer.tk%3A6969","udp%3A%2F%2Fexodus.desync.com%3A6969"],"infoHash":"c0128d52d0264cf6cf6f5e363203aa58dc4a7524","infoHashBuffer":{"type":"Buffer","data":[192,18,141,82,208,38,76,246,207,111,94,54,50,3,170,88,220,74,117,36]},"announce":[],"urlList":[]}}